<svg width="56" height="56" viewBox="0 0 56 56" fill="none" xmlns="http://www.w3.org/2000/svg">
<path d="M23.398 10.8411C25.122 6.77983 30.878 6.77983 32.602 10.8411V10.8411C33.5833 13.1527 36.127 14.3776 38.546 13.7036V13.7036C42.7962 12.5193 46.385 17.0196 44.2847 20.8996V20.8996C43.0892 23.108 43.7175 25.8605 45.7527 27.3316V27.3316C49.3286 29.9161 48.0477 35.5278 43.7046 36.3049V36.3049C41.2327 36.7471 39.4724 38.9545 39.5913 41.4629V41.4629C39.8001 45.87 34.6141 48.3674 31.2987 45.4564V45.4564C29.4116 43.7995 26.5884 43.7995 24.7013 45.4564V45.4564C21.3859 48.3674 16.1999 45.87 16.4087 41.4629V41.4629C16.5276 38.9545 14.7673 36.7471 12.2954 36.3049V36.3049C7.95229 35.5278 6.67144 29.9161 10.2473 27.3316V27.3316C12.2825 25.8605 12.9108 23.108 11.7153 20.8996V20.8996C9.61498 17.0196 13.2038 12.5193 17.454 13.7036V13.7036C19.873 14.3776 22.4167 13.1527 23.398 10.8411V10.8411Z" fill="#00261F"/>
<circle cx="28" cy="28" r="10.8267" fill="#D9D9D9"/>
<circle cx="28" cy="28" r="6.34667" fill="#00261F"/>
</svg>
