<svg width="75" height="75" viewBox="0 0 75 75" fill="none" xmlns="http://www.w3.org/2000/svg">
<path d="M32.2617 12.3399C34.2241 7.71715 40.7759 7.71715 42.7383 12.3399L44.0083 15.3317C45.1252 17.9628 48.0206 19.3571 50.774 18.5899L53.905 17.7175C58.7427 16.3695 62.8277 21.4919 60.437 25.9084L58.8897 28.7667C57.529 31.2804 58.2441 34.4134 60.5607 36.0878L63.1949 37.9917C67.2651 40.9335 65.8072 47.3211 60.8637 48.2056L57.6643 48.778C54.8506 49.2814 52.8469 51.794 52.9822 54.6491L53.1361 57.8957C53.3738 62.9121 47.4708 65.7548 43.697 62.4413L41.2547 60.2968C39.1068 58.4109 35.8932 58.4108 33.7453 60.2968L31.303 62.4413C27.5292 65.7548 21.6262 62.9121 21.8639 57.8957L22.0178 54.6491C22.1531 51.794 20.1494 49.2814 17.3357 48.778L14.1363 48.2056C9.19283 47.3211 7.7349 40.9335 11.8051 37.9917L14.4393 36.0878C16.7559 34.4134 17.471 31.2804 16.1103 28.7667L14.563 25.9084C12.1723 21.4919 16.2573 16.3695 21.095 17.7175L24.226 18.5899C26.9794 19.3571 29.8748 17.9628 30.9917 15.3317L32.2617 12.3399Z" fill="#00261F"/>
<circle cx="37.5" cy="37.5" r="14.5" fill="#D9D9D9"/>
<circle cx="37.5" cy="37.5" r="8.5" fill="#00261F"/>
</svg>