<svg width="65" height="65" viewBox="0 0 65 65" fill="none" xmlns="http://www.w3.org/2000/svg">
<rect width="65" height="65" rx="7" fill="#00261F"/>
<rect x="6.96436" y="6.96429" width="51.0714" height="51.0714" rx="5" fill="#D9D9D9"/>
<path d="M6.96436 11.9643C6.96436 9.20286 9.20293 6.96429 11.9644 6.96429H53.0358C55.7972 6.96429 58.0358 9.20287 58.0358 11.9643V27.8572H6.96436V11.9643Z" fill="#F0932A"/>
<path d="M17.292 35.454C18.66 35.454 19.842 35.712 20.838 36.228C21.846 36.732 22.614 37.458 23.142 38.406C23.682 39.354 23.952 40.47 23.952 41.754C23.952 43.038 23.682 44.154 23.142 45.102C22.614 46.038 21.846 46.758 20.838 47.262C19.842 47.754 18.66 48 17.292 48H13.386V35.454H17.292ZM17.292 46.65C18.912 46.65 20.148 46.224 21 45.372C21.852 44.508 22.278 43.302 22.278 41.754C22.278 40.194 21.846 38.976 20.982 38.1C20.13 37.224 18.9 36.786 17.292 36.786H15.024V46.65H17.292ZM33.5286 45.21H28.0566L27.0486 48H25.3206L29.8566 35.526H31.7466L36.2646 48H34.5366L33.5286 45.21ZM33.0606 43.878L30.7926 37.542L28.5246 43.878H33.0606ZM47.0255 35.454L42.9395 43.266V48H41.3015V43.266L37.1975 35.454H39.0155L42.1115 41.808L45.2075 35.454H47.0255ZM50.8772 35.454L50.6792 44.454H49.3112L49.1132 35.454H50.8772ZM50.0672 48.108C49.7552 48.108 49.4912 48 49.2752 47.784C49.0592 47.568 48.9512 47.304 48.9512 46.992C48.9512 46.68 49.0592 46.416 49.2752 46.2C49.4912 45.984 49.7552 45.876 50.0672 45.876C50.3672 45.876 50.6192 45.984 50.8232 46.2C51.0392 46.416 51.1472 46.68 51.1472 46.992C51.1472 47.304 51.0392 47.568 50.8232 47.784C50.6192 48 50.3672 48.108 50.0672 48.108Z" fill="#00261F"/>
<circle cx="17.9912" cy="14.5089" r="5.22321" fill="#D9D9D9"/>
<circle cx="33.0803" cy="14.5089" r="5.22321" fill="#D9D9D9"/>
<circle cx="48.1696" cy="14.5089" r="5.22321" fill="#D9D9D9"/>
</svg>